<svg
      width="50"
      height="50"
      viewBox="0 0 50 50"
      fill="none"
      xmlns="http://www.w3.org/2000/svg"
    >
      <path
        d="M43.75 14.5834V35.4167C43.75 41.6667 40.625 45.8334 33.3333 45.8334H16.6667C9.375 45.8334 6.25 41.6667 6.25 35.4167V14.5834C6.25 8.33341 9.375 4.16675 16.6667 4.16675H33.3333C40.625 4.16675 43.75 8.33341 43.75 14.5834Z"
        stroke="currentColor"
        stroke-width="2"
        stroke-miterlimit="10"
        stroke-linecap="round"
        stroke-linejoin="round"
      ></path>
      <path
        d="M33.8542 22.9167H16.1458C14.1458 22.9167 12.5 21.2709 12.5 19.2709V14.0626C12.5 12.0626 14.1458 10.4167 16.1458 10.4167H33.8542C35.8542 10.4167 37.5 12.0626 37.5 14.0626V19.2709C37.5 21.2709 35.8542 22.9167 33.8542 22.9167Z"
        stroke="currentColor"
        stroke-width="2"
        stroke-miterlimit="10"
        stroke-linecap="round"
        stroke-linejoin="round"
      ></path>
      <path
        d="M21.4584 31.8335L16.6667 36.6251"
        stroke="currentColor"
        stroke-width="2"
        stroke-miterlimit="10"
        stroke-linecap="round"
        stroke-linejoin="round"
      ></path>
      <path
        d="M16.7292 31.8958L21.5209 36.6874"
        stroke="currentColor"
        stroke-width="2"
        stroke-miterlimit="10"
        stroke-linecap="round"
        stroke-linejoin="round"
      ></path>
      <path
        d="M34.3542 31.9375H34.396"
        stroke="currentColor"
        stroke-width="2"
        stroke-miterlimit="10"
        stroke-linecap="round"
        stroke-linejoin="round"
      ></path>
      <path
        d="M30.1875 36.4582V36.4165"
        stroke="currentColor"
        stroke-width="2"
        stroke-miterlimit="10"
        stroke-linecap="round"
        stroke-linejoin="round"
      ></path>
    </svg>