<svg
  width="50"
  height="50"
  viewBox="0 0 50 50"
  fill="none"
  xmlns="http://www.w3.org/2000/svg"
>
  <path
    d="M45.8333 17.7084C45.8333 25.1876 39.7708 31.2501 32.2917 31.2501C31.9375 31.2501 31.5625 31.2293 31.2084 31.2084C30.6875 24.6043 25.3958 19.3126 18.7916 18.7917C18.7708 18.4376 18.75 18.0626 18.75 17.7084C18.75 10.2292 24.8125 4.16675 32.2917 4.16675C39.7708 4.16675 45.8333 10.2292 45.8333 17.7084Z"
    stroke="currentColor"
    stroke-width="2"
    stroke-linecap="round"
    stroke-linejoin="round"
  ></path>
  <path
    d="M31.2501 32.2917C31.2501 39.7708 25.1876 45.8333 17.7084 45.8333C10.2292 45.8333 4.16675 39.7708 4.16675 32.2917C4.16675 24.8125 10.2292 18.75 17.7084 18.75C18.0626 18.75 18.4376 18.7708 18.7917 18.7916C25.3959 19.3125 30.6876 24.6042 31.2084 31.2084C31.2293 31.5625 31.2501 31.9375 31.2501 32.2917Z"
    stroke="currentColor"
    stroke-width="2"
    stroke-linecap="round"
    stroke-linejoin="round"
  ></path>
  <path
    d="M11.6459 4.16675H6.25008C5.10425 4.16675 4.16675 5.10425 4.16675 6.25008V11.6459C4.16675 13.5001 6.41673 14.4376 7.72923 13.1251L13.1251 7.72923C14.4167 6.41673 13.5001 4.16675 11.6459 4.16675Z"
    stroke="currentColor"
    stroke-width="2"
    stroke-linecap="round"
    stroke-linejoin="round"
  ></path>
  <path
    d="M38.3542 45.8333H43.75C44.8958 45.8333 45.8333 44.8958 45.8333 43.75V38.3541C45.8333 36.5 43.5833 35.5625 42.2708 36.875L36.875 42.2708C35.5833 43.5833 36.5 45.8333 38.3542 45.8333Z"
    stroke="currentColor"
    stroke-width="2"
    stroke-linecap="round"
    stroke-linejoin="round"
  ></path>
</svg>
